<?xml version="1.0" encoding="utf-8"?>
<?xml-stylesheet href="../css/styles/1001.css" type="text/css"?>
<!-- Generator: Adobe Illustrator 15.1.0, SVG Export Plug-In  -->
<!DOCTYPE svg [
	<!ENTITY ns_flows "http://ns.adobe.com/Flows/1.0/">
]>
<svg class="fill-turquoise" version="1.2" baseProfile="tiny"
	 xmlns="http://www.w3.org/2000/svg" xmlns:xlink="http://www.w3.org/1999/xlink" xmlns:a="http://ns.adobe.com/AdobeSVGViewerExtensions/3.0/"
	 x="0px" y="0px" width="100%" height="100%" viewBox="-0.508 -0.767 46 60" overflow="visible" xml:space="preserve">
<defs>
</defs>
<polygon class="fill-amethyst" points="7.734,5.156 15,5.156 15.234,5.156 22.5,5.156 22.734,5.156 30,5.156 30.234,5.156 37.734,5.156 37.734,0 30.234,0 
	30,0 22.734,0 22.5,0 15.234,0 15,0 7.734,0 7.5,0 0,0 0,5.156 7.5,5.156 "/>
<polygon class="fill-amethyst dark" points="7.734,14.156 15,14.156 15.234,14.156 22.5,14.156 22.734,14.156 30,14.156 30.234,14.156 37.734,14.156 37.734,9 
	30.234,9 30,9 22.734,9 22.5,9 15.234,9 15,9 7.734,9 7.5,9 0,9 0,14.156 7.5,14.156 "/>
<polygon points="7.734,23.156 15,23.156 15.234,23.156 22.5,23.156 22.734,23.156 30,23.156 30.234,23.156 37.734,23.156 37.734,18 
	30.234,18 30,18 22.734,18 22.5,18 15.234,18 15,18 7.734,18 7.5,18 0,18 0,23.156 7.5,23.156 "/>
<polygon class="fill-turquoise dark" points="7.734,32.157 15,32.157 15.234,32.157 22.734,32.157 22.734,27 15.234,27 15,27 7.734,27 7.5,27 0,27 0,32.157 
	7.5,32.157 "/>
<polygon class="fill-amethyst" points="7.734,41.157 15,41.157 15.234,41.157 22.5,41.157 22.734,41.157 30,41.157 30.234,41.157 37.734,41.157 37.734,36 
	30.234,36 30,36 22.734,36 22.5,36 15.234,36 15,36 7.734,36 7.5,36 0,36 0,41.157 7.5,41.157 "/>
<polygon class="fill-amethyst dark" points="7.734,50.157 15,50.157 15.234,50.157 22.5,50.157 22.734,50.157 30.234,50.157 30.234,45 22.734,45 22.5,45 
	15.234,45 15,45 7.734,45 7.5,45 0,45 0,50.157 7.5,50.157 "/>
<polygon points="37.734,54 37.5,54 30.234,54 30,54 22.734,54 22.5,54 15.234,54 15,54 7.734,54 7.5,54 0,54 0,59.157 7.5,59.157 
	7.734,59.157 15,59.157 15.234,59.157 22.5,59.157 22.734,59.157 30,59.157 30.234,59.157 37.5,59.157 37.734,59.157 45.234,59.157 
	45.234,54 "/>
</svg>
