<?xml version="1.0" encoding="utf-8"?>
<?xml-stylesheet href="../css/styles/1001.css" type="text/css"?>
<!DOCTYPE svg PUBLIC "-//W3C//DTD SVG 1.1//EN" "http://www.w3.org/Graphics/SVG/1.1/DTD/svg11.dtd">
<svg version="1.1" id="Layer_1" xmlns="http://www.w3.org/2000/svg" xmlns:xlink="http://www.w3.org/1999/xlink" x="0px" y="0px"
	 width="100%" height="100%" viewBox="0 0 63.801 63.802" enable-background="new 0 0 63.801 63.802" xml:space="preserve">
<g>
	<path fill-rule="evenodd" clip-rule="evenodd" d="M0.125,0C0.585,0.222,1.041,0.46,1.51,0.662
		c5.047,2.169,10.099,4.327,15.142,6.503c0.379,0.164,0.673,0.159,1.039-0.03c1.641-0.845,3.297-1.661,4.948-2.483
		c0.195-0.097,0.398-0.178,0.703-0.312c-0.106,0.253-0.154,0.405-0.228,0.541c-0.906,1.681-1.437,3.477-1.702,5.364
		c-0.035,0.25-0.305,0.467-0.47,0.698c-0.009,0.015-0.039,0.015-0.056,0.025c-2.335,1.562-4.661,1.505-7.168,0.267
		C11.065,9.924,8.286,8.87,5.561,7.703c-0.187-0.08-0.379-0.15-0.634-0.252c0,7.327,0,14.592,0,21.862
		c1.16,0.159,2.314,0.261,3.445,0.482c3.119,0.609,5.889,1.937,8.266,4.075c0.313,0.279,0.767,0.501,1.181,0.555
		c2.255,0.287,3.896,1.432,4.966,3.415c0.592,1.093,1.128,2.216,1.729,3.307c0.854,1.546,2.031,2.747,3.824,3.122
		c0.525,0.11,1.172,0.141,1.64-0.072c1.875-0.846,3.753-0.543,5.616-0.129c4.17,0.926,6.979,3.541,8.621,7.39
		c0.701,1.647,1.108,3.421,1.611,5.146c0.111,0.371,0.237,0.615,0.617,0.758c0.836,0.312,1.653,0.951,2.472,0.936
		c0.787-0.012,1.569-0.668,2.349-1.059c2.375-1.18,4.744-2.377,7.129-3.545c0.416-0.205,0.545-0.45,0.545-0.908
		c-0.012-14.72-0.009-29.439-0.009-44.161c0-0.199-0.021-0.397-0.039-0.699c-2.217,1.106-4.361,2.176-6.494,3.239
		c-0.354-1.617-0.704-3.217-1.069-4.892c0.104-0.055,0.3-0.163,0.497-0.264c3.747-1.874,7.495-3.744,11.242-5.621
		C63.278,0.28,63.472,0.13,63.676,0c0.042,0.166,0.119,0.333,0.119,0.499c0.006,4.942,0.006,9.885,0.006,14.829
		c0,13.708,0,27.413,0,41.121c-0.077,0.029-0.158,0.051-0.23,0.09c-4.676,2.332-9.352,4.67-14.024,7.008
		c-0.12,0.061-0.219,0.168-0.326,0.256c-0.081,0-0.165,0-0.249,0c-0.194-0.107-0.384-0.23-0.59-0.318
		c-5.305-2.27-10.613-4.529-15.912-6.811c-0.429-0.186-0.752-0.154-1.15,0.047c-4.474,2.25-8.955,4.484-13.433,6.725
		c-0.198,0.1-0.378,0.236-0.565,0.357c-0.124,0-0.248,0-0.374,0c-0.127-0.09-0.245-0.201-0.385-0.262
		C11.042,61.175,5.521,58.812,0,56.449C0,37.82,0,19.19,0.006,0.56C0.006,0.373,0.084,0.188,0.125,0z"/>
	<path fill-rule="evenodd" clip-rule="evenodd" d="M38.197,38.958c-0.926,0-1.875,0-2.846,0c-0.084-0.743-0.132-1.465-0.255-2.175
		c-0.545-3.143-1.821-6.021-3.25-8.838c-1.652-3.255-3.371-6.476-5.006-9.74c-0.882-1.765-1.645-3.599-1.77-5.602
		c-0.376-5.983,4.028-11.3,10.067-12.198c6.913-1.026,13.288,4.35,13.443,11.339c0.033,1.613-0.396,3.143-1.078,4.565
		c-1.569,3.271-3.214,6.506-4.855,9.741c-1.513,2.98-3.005,5.971-3.811,9.237C38.547,36.468,38.413,37.687,38.197,38.958z
		 M31.619,12.1c0.015,2.858,2.363,5.197,5.2,5.181c2.846-0.015,5.188-2.363,5.188-5.203c0.004-2.838-2.333-5.189-5.179-5.216
		C33.979,6.834,31.604,9.22,31.619,12.1z"/>
</g>
</svg>
