<?xml version="1.0" encoding="utf-8"?>
<?xml-stylesheet href="../css/style.css" type="text/css"?>
<!DOCTYPE svg PUBLIC "-//W3C//DTD SVG 1.1//EN" "http://www.w3.org/Graphics/SVG/1.1/DTD/svg11.dtd">
<svg version="1.1" id="Layer_1" xmlns="http://www.w3.org/2000/svg" xmlns:xlink="http://www.w3.org/1999/xlink" x="0px" y="0px"
	 width="77.961px" height="77.962px" viewBox="0 0 77.961 77.962" enable-background="new 0 0 77.961 77.962" xml:space="preserve">
<path class="fill-carrot dark" d="M38.98,0C17.452,0,0,17.452,0,38.98s17.452,38.981,38.98,38.981c21.529,0,38.98-17.453,38.98-38.981S60.51,0,38.98,0z
	 M28.749,18.622c0.99-0.597,1.992-1.175,3.002-1.735c0.721-0.399,1.535-0.177,1.953,0.542c1.945,3.346,3.877,6.7,5.806,10.055
	c0.118,0.205,0.163,0.451,0.191,0.535c0.02,0.72-0.222,1.149-0.694,1.427c-1.011,0.596-2.024,1.188-3.054,1.749
	c-0.728,0.398-1.495,0.192-1.91-0.521c-1.954-3.362-3.897-6.729-5.829-10.102C27.795,19.841,28.017,19.062,28.749,18.622z
	 M43.688,61.224c-1.044-0.129-1.987-0.551-2.882-1.076c-1.813-1.068-3.42-2.412-4.873-3.916
	c-5.662-5.857-9.719-12.699-12.304-20.412c-0.871-2.598-1.419-5.268-1.463-8.033c-0.04-2.537,0.983-4.471,3.07-5.866
	c0.61-0.407,1.24-0.785,1.913-1.209c2.098,3.633,4.154,7.196,6.217,10.769c-2.042,1.446-2.22,3.532-1.85,5.676
	c0.701,4.063,2.582,7.537,5.662,10.306c1.112,1,2.389,1.771,3.946,1.764c0.732-0.004,1.465-0.222,2.281-0.355
	c1.996,3.455,4.053,7.02,6.13,10.617C47.705,60.55,45.88,61.497,43.688,61.224z M54.988,57.237c-0.97,0.562-1.938,1.129-2.914,1.676
	c-0.807,0.453-1.582,0.236-2.058-0.58c-1.479-2.541-2.948-5.092-4.421-7.639c-0.43-0.743-0.863-1.484-1.285-2.23
	c-0.496-0.878-0.298-1.639,0.562-2.145c0.921-0.541,1.846-1.076,2.775-1.603c0.874-0.495,1.647-0.298,2.144,0.56
	c1.905,3.289,3.805,6.581,5.695,9.877c0.143,0.249,0.208,0.543,0.309,0.816C55.729,56.556,55.463,56.96,54.988,57.237z"/>
</svg>
