<?xml version="1.0" encoding="utf-8"?>
<!-- Generator: Adobe Illustrator 16.0.0, SVG Export Plug-In . SVG Version: 6.00 Build 0)  -->
<!DOCTYPE svg PUBLIC "-//W3C//DTD SVG 1.1//EN" "http://www.w3.org/Graphics/SVG/1.1/DTD/svg11.dtd">
<svg version="1.1" id="Layer_1" xmlns="http://www.w3.org/2000/svg" xmlns:xlink="http://www.w3.org/1999/xlink" x="0px" y="0px"
	 width="77.962px" height="77.961px" viewBox="0 0 77.962 77.961" enable-background="new 0 0 77.962 77.961" xml:space="preserve">
<path d="M38.981,0C17.452,0,0,17.451,0,38.98c0,21.528,17.452,38.98,38.981,38.98c21.528,0,38.981-17.452,38.981-38.98
	C77.962,17.451,60.509,0,38.981,0z M42.461,65.594C41.524,66.531,40.387,67,39.051,67c-1.383,0-2.543-0.469-3.48-1.406
	c-0.961-0.961-1.441-2.133-1.441-3.516c0-1.312,0.48-2.449,1.441-3.41c0.961-0.961,2.109-1.441,3.445-1.441s2.483,0.48,3.445,1.441
	c0.961,0.961,1.441,2.109,1.441,3.445C43.903,63.473,43.422,64.633,42.461,65.594z M35.061,43.568
	c0.223,0.504,0.521,0.943,0.896,1.318c0.375,0.375,0.814,0.668,1.318,0.879c0.504,0.211,1.037,0.316,1.6,0.316
	c2.578,0,3.984-1.805,4.219-5.414h7.945c0,3.562-0.949,6.434-2.848,8.613c-2.461,2.836-5.613,4.254-9.457,4.254
	c-3.375,0-6.2-1.172-8.473-3.516c-2.297-2.367-3.445-5.262-3.445-8.684c0-2.719,0.715-4.898,2.145-6.539
	c1.453-1.664,3.914-3.117,7.383-4.359c3.445-1.266,5.625-2.285,6.539-3.059c0.937-0.773,1.406-1.969,1.406-3.586
	s-0.487-2.9-1.459-3.85c-0.973-0.949-2.268-1.424-3.885-1.424s-2.906,0.469-3.867,1.406c-0.961,0.938-1.441,2.215-1.441,3.832
	c0,0.727,0.141,1.734,0.422,3.023h-8.191c-0.047-0.609-0.088-1.148-0.123-1.617s-0.053-0.891-0.053-1.266
	c0-3.703,1.253-6.785,3.762-9.246c2.484-2.461,5.625-3.691,9.422-3.691c3.819,0,7.008,1.242,9.562,3.727
	c2.554,2.484,3.832,5.59,3.832,9.316c0,3.82-1.278,6.902-3.832,9.246c-1.617,1.477-4.664,2.906-9.141,4.289
	c-3.047,0.938-4.57,2.414-4.57,4.43C34.727,42.531,34.838,43.064,35.061,43.568z"/>
</svg>
