<?xml version="1.0" encoding="utf-8"?>
<?xml-stylesheet href="../css/styles/1001.css" type="text/css"?>
<!DOCTYPE svg PUBLIC "-//W3C//DTD SVG 1.1//EN" "http://www.w3.org/Graphics/SVG/1.1/DTD/svg11.dtd">
<svg class="fill-carrot" version="1.1" id="Layer_1" xmlns="http://www.w3.org/2000/svg" xmlns:xlink="http://www.w3.org/1999/xlink" x="0px" y="0px"
	 width="100%" height="100%" viewBox="0 0 150.025 76.417" enable-background="new 0 0 150.025 76.417"
	 xml:space="preserve">
<g >
	<circle fill="none" cx="75.013" cy="38.208" r="14.89"/>
	<path d="M102.232,38.208c0-7.696-3.199-14.641-8.334-19.593c20.929,3.137,40.107,10.79,56.127,17.457
		C132.984,17.306,105.73,0,75.013,0S17.04,17.305,0,36.072c16.019-6.666,35.198-14.319,56.126-17.456
		c-5.135,4.951-8.334,11.896-8.334,19.593s3.199,14.642,8.335,19.593C35.198,54.665,16.019,47.011,0,40.344
		c17.04,18.767,44.295,36.073,75.013,36.073s57.972-17.306,75.013-36.072c-16.02,6.666-35.199,14.319-56.127,17.456
		C99.033,52.85,102.232,45.905,102.232,38.208z M75.013,53.098c-8.224,0-14.89-6.667-14.89-14.89c0-8.224,6.666-14.89,14.89-14.89
		s14.89,6.666,14.89,14.89C89.902,46.431,83.236,53.098,75.013,53.098z"/>
</g>
</svg>
